<svg id="Layer_1" enable-background="new 0 0 511 511" height="512" viewBox="0 0 511 511" width="512" xmlns="http://www.w3.org/2000/svg"><g><path d="m39.5 103.5h352v352h-352z" fill="#efc17a"/><path d="m39.5 151.5h352v24h-352z" fill="#ff9d87"/><path d="m87.5 79.5h304v352h-304z" fill="#ff9d87"/><path d="m39.5 103.5h352v48h-352z" fill="#fff"/><path d="m39.5 103.5h48v48h-48z" fill="#fff"/><path d="m87.5 55.5h352v352h-352z" fill="#93fee6"/><path d="m87.5 103.5h352v24h-352z" fill="#7fdcc7"/><path d="m87.5 55.5h352v48h-352z" fill="#d571ab"/><path d="m87.5 55.5h48v48h-48z" fill="#fff"/><path d="m441.56 279.5 61.94 120.47v7.53h-128v-7.53l61.94-120.47z" fill="#d571ab"/><path d="m503.5 399.97v7.53h-128v-7.53l8.47-16.47h111.06z" fill="#923ec3"/><path d="m73.56 183.5 61.94 120.47v7.53h-128v-7.53l61.94-120.47z" fill="#d571ab"/><path d="m135.5 303.97v7.53h-128v-7.53l8.47-16.47h111.06z" fill="#923ec3"/><g><path d="m80 335.5v79.5h271.5v-15h-256.5v-64.5z"/><path d="m128 207h47v-63h-47zm15-48h17v33h-17z"/><path d="m192 143.5h15v64h-15z"/><path d="m271 144h-47v63h47zm-15 48h-17v-33h17z"/><path d="m399 144h-47v63h47zm-15 48h-17v-33h17z"/><path d="m288 143.5h15v64h-15z"/><path d="m320 143.5h15v64h-15z"/><path d="m256 223.5h15v64h-15z"/><path d="m192 287h47v-63h-47zm15-48h17v33h-17z"/><path d="m288 287h47v-63h-47zm15-48h17v33h-17z"/><path d="m384 223.5h15v64h-15z"/><path d="m352 223.5h15v64h-15z"/><path d="m160 367h47v-63h-47zm15-48h17v33h-17z"/><path d="m128 335.5h15v32h-15z"/><path d="m224 367h47v-63h-47zm15-48h17v33h-17z"/><path d="m367 304h-47v63h47zm-15 48h-17v-33h17z"/><path d="m288 303.5h15v64h-15z"/><path d="m432 327.5h15v32h-15z"/><path d="m432 375.5h15v16h-15z"/><path d="m511 398.155-64.863-126.155h-13.273l-33.864 65.862v-34.362h-15v63.536l-16 31.119v16.845h16v33h-337v-112.5h-15v127.5h367v-48h112zm-127.082 1.845 55.582-108.104 55.582 108.104z"/><path d="m64 231.5h15v32h-15z"/><path d="m64 279.5h15v16h-15z"/><path d="m143 302.155-7.792-15.155h39.792v-63h-47v48.981l-33-64.183v-97.798h337v144.5h15v-207.5h-367v48h-48v103.5h15v-40.5h33v20.624l-1.863-3.624h-13.274l-64.863 126.155v16.845h143zm0-63.155h17v33h-17zm289-143h-289v-33h289zm-304-33v33h-33v-33zm-81 81v-33h33v33zm-31.082 160 55.582-108.104 55.582 108.104z"/></g><g><g><path d="m223.5 72h16v15h-16z" fill="#fff"/></g><g><path d="m255.5 72h16v15h-16z" fill="#fff"/></g><g><path d="m287.5 72h16v15h-16z" fill="#fff"/></g></g></g></svg>