<svg id="_x33_0" enable-background="new 0 0 64 64" height="512" viewBox="0 0 64 64" width="512" xmlns="http://www.w3.org/2000/svg"><g><path d="m44.994 23.592 1.071-1.071c.375-.375.727-.767 1.061-1.17l-4.023-4.694c-.336.198-.681.382-1.044.542 1.841 1.627 2.904 3.924 2.935 6.393z"/><path d="m27.342 40.553c.585.292 1.24.447 1.894.447h5.528c.654 0 1.309-.155 1.895-.447 1.444-.722 2.341-2.174 2.341-3.789v-3.382l1.046-.523c.831-.415 1.542-1.043 2.057-1.815.586-.881.897-1.906.897-2.965v-4.377c0-2.047-.917-3.954-2.515-5.233-1.184-.948-2.671-1.469-4.187-1.469h-8.597c-1.516 0-3.003.521-4.187 1.468-1.597 1.28-2.514 3.187-2.514 5.234v4.377c0 1.059.311 2.084.897 2.964.515.772 1.226 1.4 2.057 1.815l1.046.524v3.382c0 1.615.897 3.067 2.342 3.789zm9.658-3.553h-2v2h-2v-2h-2v2h-2v-2h-2v-2h2v-2h2v2h2v-2h2v2h2zm-2.723-14.387 1.664-1.109c.495-.33 1.07-.504 1.664-.504h.395c1.654 0 3 1.346 3 3v.414l-.293.293c-.162.162-.162.424 0 .586l.293.293v.414c0 1.654-1.346 3-3 3h-.395c-.595 0-1.17-.174-1.665-.504l-1.664-1.109c-.798-.533-1.276-1.426-1.276-2.387s.478-1.854 1.277-2.387zm-1.277 8.387h-2v-2h2zm-10-5v-.414l.293-.293c.162-.162.162-.424 0-.586l-.293-.293v-.414c0-1.654 1.346-3 3-3h.395c.595 0 1.17.174 1.665.504l1.664 1.109c.798.533 1.276 1.426 1.276 2.387s-.478 1.854-1.277 2.387l-1.664 1.109c-.495.33-1.07.504-1.664.504h-.395c-1.654 0-3-1.346-3-3z"/><path d="m26.395 27c.198 0 .39-.058.554-.168l1.665-1.109c.241-.162.386-.432.386-.723s-.145-.561-.387-.723l-1.664-1.109c-.165-.11-.356-.168-.554-.168h-.395c-.451 0-.834.301-.958.712.494.784.494 1.792 0 2.576.124.411.507.712.958.712z"/><path d="m49 29.592c0-.888-.209-1.776-.606-2.569l-1.334-2.668-2.06 2.059v1.665c0 1.455-.427 2.864-1.233 4.074-.695 1.043-1.651 1.894-2.767 2.465v2.146c0 2.377-1.321 4.514-3.447 5.578-.862.43-1.826.658-2.789.658h-5.528c-.962 0-1.927-.228-2.788-.658-2.127-1.064-3.448-3.201-3.448-5.578v-2.146c-1.116-.571-2.071-1.422-2.767-2.465-.806-1.21-1.233-2.619-1.233-4.074v-1.665l-2.059-2.059-1.334 2.668c-.398.793-.607 1.682-.607 2.569 0 1.322.461 2.614 1.298 3.638l7.476 9.137-1.548 1.267-.68-.831-.428 2.568 7.938 3.175c.208-.884.998-1.546 1.944-1.546h2c.946 0 1.736.662 1.943 1.545l7.938-3.175-.428-2.568-.68.831-1.548-1.267 7.476-9.137c.838-1.022 1.299-2.314 1.299-3.637z"/><path d="m37.051 26.832c.165.11.356.168.554.168h.395c.451 0 .834-.301.958-.712-.494-.784-.494-1.792 0-2.576-.124-.411-.507-.712-.958-.712h-.395c-.198 0-.39.058-.554.168l-1.665 1.109c-.241.162-.386.432-.386.723s.145.561.387.723z"/><path d="m48 8.109c0 .357-.041.706-.078 1.056l3.03.606c-.079-.951-.287-1.878-.632-2.771h-2.385c.042.368.065.739.065 1.109z"/><path d="m46.806 12.785 3.692 1.846c.225-.921.375-1.863.443-2.823l-3.418-.683c-.184.578-.432 1.128-.717 1.66z"/><path d="m49.901 16.569-4.217-2.109c-.298.357-.621.691-.968 1.005l3.62 4.223c.633-.985 1.153-2.03 1.565-3.119z"/><path d="m47.487 5h1.714c-.656-.795-1.491-1.389-2.438-1.711l.189.377c.214.429.385.878.535 1.334z"/><path d="m13.059 11.808c.067.96.218 1.902.443 2.823l3.692-1.846c-.284-.531-.533-1.081-.717-1.66z"/><path d="m37 52.999-4 .001v-4h-2v4h-4v2h4v6h2v-6h4z"/><path d="m17.049 3.667.189-.379c-.961.324-1.806.92-2.455 1.712h1.73c.151-.456.322-.905.536-1.333z"/><path d="m16 8.109c0-.37.023-.741.065-1.109h-2.382c-.35.909-.556 1.831-.635 2.771l3.03-.606c-.037-.35-.078-.699-.078-1.056z"/><path d="m15.664 19.688 3.62-4.223c-.347-.314-.67-.648-.968-1.005l-4.217 2.108c.412 1.09.932 2.135 1.565 3.12z"/><path d="m25 55v-2c0-1.103.897-2 2-2h2v-.324l-9.555-3.844-1.981-1.32c-5.457-3.639-9.254-9.088-10.791-15.331-.447 1.53-.673 3.111-.673 4.709 0 3.719 1.257 7.384 3.541 10.32 1.947 2.504 4.733 4.225 7.844 4.848l4.811.962-.393 1.961-4.811-.962c-3.582-.716-6.789-2.698-9.031-5.581-.126-.162-.236-.335-.357-.501-1.328-.101-2.69-.313-3.767-.518 1.442 2.654 3.545 4.892 6.113 6.497 2.215 1.384 4.758 2.269 7.354 2.558l4.805.534-.221 1.987-4.805-.534c-2.383-.265-4.722-.987-6.854-2.093-.929 1.202-2.03 2.262-3.279 3.12 6.353 1.004 12.808 1.512 19.23 1.512h2.82v-2h-2c-1.103 0-2-.897-2-2z"/><path d="m17.935 22.521 1.071 1.071c.031-2.469 1.094-4.766 2.934-6.394-.363-.159-.708-.344-1.044-.542l-4.023 4.694c.335.404.687.796 1.062 1.171z"/><path d="m54.049 51.915c2.567-1.604 4.67-3.843 6.112-6.497-1.077.205-2.438.417-3.767.518-.12.166-.231.339-.357.501-2.242 2.883-5.449 4.865-9.031 5.581l-4.811.962-.393-1.961 4.811-.962c3.111-.623 5.897-2.344 7.844-4.848 2.286-2.935 3.543-6.6 3.543-10.319 0-1.598-.226-3.179-.673-4.708-1.537 6.243-5.334 11.692-10.791 15.331l-2.164 1.417-9.372 3.747v.323h2c1.103 0 2 .897 2 2v2c0 1.103-.897 2-2 2h-2v2h2.82c6.422 0 12.877-.508 19.229-1.513-1.25-.858-2.351-1.918-3.279-3.12-2.132 1.106-4.471 1.828-6.854 2.093l-4.805.534-.221-1.987 4.805-.534c2.596-.289 5.139-1.174 7.354-2.558z"/><path d="m23.916 15.876c1.175-.567 2.47-.876 3.786-.876h8.597c1.315 0 2.611.309 3.786.876l1.108-.475c.515-.221.985-.507 1.431-.821l-3.972-7.149c-.276-.496-1.062-.549-1.402-.096-1.721 2.294-4.343 3.792-7.194 4.109-3.032.337-5.894 1.52-8.282 3.42.329.202.674.383 1.036.538z"/></g></svg>