<?xml version="1.0" encoding="utf-8"?>
<!-- Generator: Adobe Illustrator 24.1.0, SVG Export Plug-In . SVG Version: 6.00 Build 0)  -->
<svg version="1.1" id="Capa_1" xmlns="http://www.w3.org/2000/svg" xmlns:xlink="http://www.w3.org/1999/xlink" x="0px" y="0px"
	 viewBox="0 0 512 512" style="enable-background:new 0 0 512 512;" xml:space="preserve">
<style type="text/css">
	.st0{fill:#FFF2E9;}
	.st1{fill:#E2D0C5;}
</style>
<path class="st0" d="M256,0C148.2,0,60.8,87.4,60.8,195.2S148.2,512,256,512s195.2-209,195.2-316.8S363.8,0,256,0z M136.2,216.8
	c-18.1-18.1-10.6-40,7.5-58.1s40-25.7,58.1-7.5c18.1,18.1,18.1,47.5,0,65.6C183.7,234.9,154.3,234.9,136.2,216.8z M256,437.3
	c-31.8,0-57.6-34.4-57.6-76.8s25.8-76.8,57.6-76.8s57.6,34.4,57.6,76.8S287.8,437.3,256,437.3z M375.8,216.8
	c-18.1,18.1-47.5,18.1-65.6,0c-18.1-18.1-18.1-47.5,0-65.6c18.1-18.1,40-10.6,58.1,7.5C386.4,176.8,393.9,198.7,375.8,216.8z"/>
<path class="st1" d="M256,0c50.8,0,93.2,64.7,104.1,151.5c2.8,2.1,5.5,4.6,8.1,7.2c18.1,18.1,25.7,40,7.5,58.1
	c-4.2,4.2-9,7.4-14.1,9.7C354.1,338.8,309.7,512,256,512c107.8,0,195.2-209,195.2-316.8C451.2,87.4,363.8,0,256,0z"/>
</svg>
